HIERARCHY
ROOT Hips
{
	OFFSET -3.958830 18.904000 13.208200
	CHANNELS 6 Xposition Yposition Zposition Zrotation Yrotation Xrotation 
	JOINT LHipJoint
	{
		OFFSET 0.000000 0.000000 0.000000
		CHANNELS 3 Zrotation Yrotation Xrotation
		JOINT LeftUpLeg
		{
			OFFSET 1.800000 -1.400000 0.085000
			CHANNELS 3 Zrotation Yrotation Xrotation
			JOINT LeftLeg
			{
				OFFSET 2.215000 -6.000000 0.000000
				CHANNELS 3 Zrotation Yrotation Xrotation
				JOINT LeftFoot
				{
					OFFSET 2.500000 -6.900000 0.000000
					CHANNELS 3 Zrotation Yrotation Xrotation
					JOINT LeftToeBase
					{
						OFFSET 0.200000 -0.500000 1.950000
						CHANNELS 3 Zrotation Yrotation Xrotation
						End Site
						{
							OFFSET 0.000000 0.000000 0.000000
						}
					}
				}
			}
		}
	}
	JOINT RHipJoint
	{
		OFFSET 0.000000 0.000000 0.000000
		CHANNELS 3 Zrotation Yrotation Xrotation
		JOINT RightUpLeg
		{
			OFFSET -1.800000 -1.400000 0.085000
			CHANNELS 3 Zrotation Yrotation Xrotation
			JOINT RightLeg
			{
				OFFSET -2.215000 -6.000000 0.000000
				CHANNELS 3 Zrotation Yrotation Xrotation
				JOINT RightFoot
				{
					OFFSET -2.500000 -6.900000 0.000000
					CHANNELS 3 Zrotation Yrotation Xrotation
					JOINT RightToeBase
					{
						OFFSET -0.200000 -0.500000 1.950000
						CHANNELS 3 Zrotation Yrotation Xrotation
						End Site
						{
							OFFSET 0.000000 0.000000 0.000000
						}
					}
				}
			}
		}
	}
	JOINT LowerBack
	{
		OFFSET 0.000000 0.000000 0.000000
		CHANNELS 3 Zrotation Yrotation Xrotation
		JOINT Spine
		{
			OFFSET -0.087000 1.940000 -0.288900
			CHANNELS 3 Zrotation Yrotation Xrotation
			JOINT Spine1
			{
				OFFSET 0.000000 1.950000 0.060000
				CHANNELS 3 Zrotation Yrotation Xrotation
				JOINT Neck
				{
					OFFSET 0.000000 0.000000 0.000000
					CHANNELS 3 Zrotation Yrotation Xrotation
					JOINT Neck1
					{
						OFFSET 0.000000 1.600000 0.340000
						CHANNELS 3 Zrotation Yrotation Xrotation
						JOINT Head
						{
							OFFSET 0.000000 1.667000 -0.240000
							CHANNELS 3 Zrotation Yrotation Xrotation
							End Site
							{
								OFFSET 0.000000 0.000000 0.000000
							}
						}
					}
				}
				JOINT LeftShoulder
				{
					OFFSET 0.000000 0.000000 0.000000
					CHANNELS 3 Zrotation Yrotation Xrotation
					JOINT LeftArm
					{
						OFFSET 2.700000 1.550000 -0.730000
						CHANNELS 3 Zrotation Yrotation Xrotation
						JOINT LeftForeArm
						{
							OFFSET 5.450000 0.000000 0.000000
							CHANNELS 3 Zrotation Yrotation Xrotation
							JOINT LeftHand
							{
								OFFSET 3.450000 0.000000 0.000000
								CHANNELS 3 Zrotation Yrotation Xrotation
								JOINT LeftHandIndex1
								{
									OFFSET 0.750000 0.000000 0.000000
									CHANNELS 3 Zrotation Yrotation Xrotation
									End Site
									{
										OFFSET 0.000000 0.000000 0.000000
									}
								}
							}
						}
					}
				}
				JOINT RightShoulder
				{
					OFFSET 0.000000 0.000000 0.000000
					CHANNELS 3 Zrotation Yrotation Xrotation
					JOINT RightArm
					{
						OFFSET -2.700000 1.550000 -0.730000
						CHANNELS 3 Zrotation Yrotation Xrotation
						JOINT RightForeArm
						{
							OFFSET -5.450000 0.000000 0.000000
							CHANNELS 3 Zrotation Yrotation Xrotation
							JOINT RightHand
							{
								OFFSET -3.450000 0.000000 0.000000
								CHANNELS 3 Zrotation Yrotation Xrotation
								JOINT RightHandIndex1
								{
									OFFSET -0.750000 0.000000 0.000000
									CHANNELS 3 Zrotation Yrotation Xrotation
									End Site
									{
										OFFSET 0.000000 0.000000 0.000000
									}
								}
							}
						}
					}
				}
			}
		}
	}
}
MOTION
Frames: 4
Frame Time: 0.016667
-0.638060 16.069390 -1.377380 -0.704714 -8.641944 8.471530 -15.502865 8.890077 6.459658 23.766767 -4.637151 -46.949240 -47.739976 25.570925 28.466068 1.572052 11.939733 0.811311 0.400950 -0.199680 0.595300 18.699356 -7.221338 4.484527 -35.854940 3.772892 -37.643799 40.548598 -20.955126 27.048923 -1.192443 -8.860216 1.424924 -0.190530 0.281930 0.438120 -3.996257 -1.116399 -10.315422 19.362509 0.672279 21.825488 6.579173 3.776645 4.874172 0.246943 -1.583721 -10.336867 -4.963971 -2.057215 39.567936 -15.661620 5.292460 5.556130 -14.434005 -5.833128 5.457169 -26.535842 8.510525 -5.821195 -47.853048 -65.422097 26.775780 -3.808948 3.695812 0.324960 0.375830 -0.145630 0.207480 13.664758 10.318643 4.783212 32.046536 7.971177 -4.687686 -13.196790 17.980787 -2.232968 2.210191 -1.607244 -0.055040 -0.076710 -0.160520 -0.289190 
-0.617900 15.972550 -1.390190 -0.782599 -9.016616 8.568153 -15.527381 8.712169 6.529590 24.380043 -4.106517 -47.804910 -49.691429 26.333400 27.941384 1.655527 12.053874 0.775085 0.432600 -0.152320 0.625950 18.724111 -7.005010 4.633095 -37.991343 3.482134 -37.911994 43.448638 -21.283688 25.500989 -1.246671 -8.991079 1.369544 -0.169780 0.241450 0.462030 -4.024443 -1.138456 -10.411212 20.404673 0.528494 22.386781 6.586733 3.887619 4.557774 0.381962 -1.468624 -9.886240 -4.579829 -2.231571 38.653596 -16.885430 5.859130 5.577940 -15.528695 -5.571181 4.835656 -22.350598 9.271869 -5.161266 -39.216717 -60.921550 20.086110 -3.804430 3.735988 0.280790 0.385970 -0.138250 0.200550 14.388860 10.089758 4.668146 28.911876 8.299500 -4.345791 -14.928462 17.076104 -2.390279 2.242204 -1.680739 -0.013870 -0.137450 -0.189990 -0.289510 
-0.583320 15.855110 -1.439300 -1.207948 -10.288785 7.404162 -15.593175 8.710550 6.570562 24.990426 -3.188474 -47.880510 -51.356760 27.430173 27.935698 1.701976 12.253169 0.689893 0.492660 -0.100200 0.669930 18.685530 -6.734511 4.789825 -39.942435 3.902607 -38.285744 46.469427 -22.150647 25.402014 -1.365319 -9.261243 1.266454 -0.135550 0.189900 0.492490 -3.913713 -1.475421 -10.528440 22.160859 -0.032567 25.855632 6.021823 4.418621 4.247234 0.896079 -1.878196 -9.716858 -5.057563 -1.413022 38.340278 -17.009670 6.181290 4.432420 -17.434272 -5.995036 4.047933 -16.670165 10.014467 -4.267417 -28.829747 -53.698335 12.677060 -3.783726 3.742773 0.294400 0.366020 -0.115750 0.193660 15.163694 11.287790 5.200718 23.891591 8.910485 -3.933487 -15.943096 15.429914 -2.327781 2.267304 -1.734592 0.013530 -0.187180 -0.208610 -0.308060 
-0.537340 15.773990 -1.482990 -1.769640 -11.570797 5.771687 -15.626273 8.821489 6.508641 24.828958 -2.635460 -47.171411 -51.264286 28.454526 29.052638 1.798304 12.399173 0.632597 0.542100 -0.033000 0.700360 18.641145 -6.625840 4.888176 -41.194469 4.524009 -37.832230 48.762202 -22.409516 25.035887 -1.439411 -9.405424 1.206530 -0.115100 0.137020 0.509570 -3.827355 -1.680439 -10.558940 23.933672 -0.854284 29.370417 4.934441 4.653308 4.681568 1.838175 -1.850438 -10.135137 -4.504100 -0.788795 38.639612 -16.756770 6.656700 4.497590 -18.493433 -6.919734 3.855131 -13.340776 11.010194 -3.839732 -21.584544 -45.488829 7.869336 -3.738977 3.764967 0.260590 0.346430 -0.094280 0.195760 14.295893 12.877271 5.959732 20.605832 10.221463 -3.212129 -15.588585 12.930770 -2.139832 2.348920 -1.789627 0.068600 -0.253830 -0.251980 -0.296740 
